<svg width="20.000000" height="20.000000" viewBox="0 0 20 20" fill="none" xmlns="http://www.w3.org/2000/svg" xmlns:xlink="http://www.w3.org/1999/xlink">
	<desc>
			Created with Pixso.
	</desc>
	<defs/>
	<rect rx="0.000000" width="19.000000" height="19.000000" transform="translate(0.500000 0.500000)" fill="#FFFFFF" fill-opacity="0"/>
	<path d="M15.29 0.7L10 6L4.7 0.7C4.31 0.31 3.68 0.31 3.29 0.7L0.7 3.29C0.31 3.68 0.31 4.31 0.7 4.7L6 10L0.7 15.29C0.31 15.68 0.31 16.31 0.7 16.7L3.29 19.29C3.68 19.68 4.31 19.68 4.7 19.29L10 14L15.29 19.29C15.68 19.68 16.31 19.68 16.7 19.29L19.29 16.7C19.68 16.31 19.68 15.68 19.29 15.29L14 10L19.29 4.7C19.68 4.31 19.68 3.68 19.29 3.29L16.7 0.7C16.31 0.31 15.68 0.31 15.29 0.7Z" fill="#3F3F40" fill-opacity="1.000000" fill-rule="evenodd"/>
</svg>
