<svg width="40.000000" height="40.000000" viewBox="0 0 40 40" fill="none" xmlns="http://www.w3.org/2000/svg">
	            <defs/>
	            <rect id="Feather Icon / search" width="40.000000" height="40.000000" fill="#FFFFFF" fill-opacity="0"/>
	            <path id="Mask" d="M36.167 33.8333L28.667 26.3333C30.5002 24 31.667 20.8333 31.667 17.5C31.667 9.66664 25.3336 3.33331 17.5002 3.33331C9.66699 3.33331 3.33362 9.66664 3.33362 17.5C3.33362 25.3333 9.66699 31.6666 17.5002 31.6666C20.8336 31.6666 23.8336 30.5 26.3336 28.6666L33.8336 36.1666C34.167 36.5 34.667 36.6666 35.0002 36.6666C35.3336 36.6666 35.8336 36.5 36.167 36.1666C36.8336 35.5 36.8336 34.5 36.167 33.8333ZM17.5001 6.66661C11.5001 6.66661 6.66687 11.5 6.66687 17.5C6.66687 23.5 11.5001 28.3333 17.5001 28.3333C20.5001 28.3333 23.1669 27.1666 25.1669 25.1666C27.1669 23.1666 28.3335 20.5 28.3335 17.5C28.3335 11.5 23.5001 6.66661 17.5001 6.66661Z" clip-rule="evenodd" fill="#000000" fill-opacity="1.000000" fill-rule="evenodd"/>
	            <mask id="mask7_61" mask-type="alpha" maskUnits="userSpaceOnUse" x="3.333618" y="3.333313" width="33.333336" height="33.333328">
	            	<path id="Mask" d="M36.167 33.8333L28.667 26.3333C30.5002 24 31.667 20.8333 31.667 17.5C31.667 9.66664 25.3336 3.33331 17.5002 3.33331C9.66699 3.33331 3.33362 9.66664 3.33362 17.5C3.33362 25.3333 9.66699 31.6666 17.5002 31.6666C20.8336 31.6666 23.8336 30.5 26.3336 28.6666L33.8336 36.1666C34.167 36.5 34.667 36.6666 35.0002 36.6666C35.3336 36.6666 35.8336 36.5 36.167 36.1666C36.8336 35.5 36.8336 34.5 36.167 33.8333ZM17.5001 6.66661C11.5001 6.66661 6.66687 11.5 6.66687 17.5C6.66687 23.5 11.5001 28.3333 17.5001 28.3333C20.5001 28.3333 23.1669 27.1666 25.1669 25.1666C27.1669 23.1666 28.3335 20.5 28.3335 17.5C28.3335 11.5 23.5001 6.66661 17.5001 6.66661Z" clip-rule="evenodd" fill="#282828" fill-opacity="1.000000" fill-rule="evenodd"/>
	            </mask>
            </svg>