<svg className="logo__basket-svg" width="50.000000" height="50.000000" viewBox="0 0 50 50" fill="none" xmlns="http://www.w3.org/2000/svg" >
	                    <desc>
	                    		Created with VladTarik and TimurRadjabov.
	                    </desc>
	                    <defs>
	                    	<clipPath id="clip5_98">
	                    		<rect id="shopping-basket-fill" width="50.000000" height="50.000000" fill="white" fill-opacity="0"/>
	                    	</clipPath>
	                    </defs>
	                    <rect id="shopping-basket-fill" width="50.000000" height="50.000000" fill="#FFFFFF" fill-opacity="0"/>
	                    <g clip-path="url(#clip5_98)">
	                    	<path id="矢量 92" d="M25 4.16C28.31 4.16 31.49 5.48 33.83 7.82C36.18 10.17 37.5 13.35 37.5 16.66L37.5 18.75L45.83 18.75L45.83 22.91L43.4 22.91L41.82 41.83C41.78 42.36 41.54 42.84 41.16 43.19C40.77 43.55 40.27 43.74 39.75 43.75L10.25 43.75C9.72 43.74 9.22 43.55 8.84 43.19C8.45 42.84 8.21 42.36 8.17 41.83L6.59 22.91L4.16 22.91L4.16 18.75L12.5 18.75L12.5 16.66C12.5 13.35 13.81 10.17 16.16 7.82C18.5 5.48 21.68 4.16 25 4.16L25 4.16ZM27.08 27.08L22.91 27.08L22.91 35.41L27.08 35.41L27.08 27.08ZM18.75 27.08L14.58 27.08L14.58 35.41L18.75 35.41L18.75 27.08ZM35.41 27.08L31.25 27.08L31.25 35.41L35.41 35.41L35.41 27.08ZM25 8.33C22.86 8.33 20.8 9.15 19.25 10.62C17.7 12.1 16.78 14.11 16.67 16.25L16.66 16.66L16.66 18.75L33.33 18.75L33.33 16.66C33.33 14.52 32.51 12.47 31.03 10.92C29.56 9.37 27.55 8.45 25.41 8.34L25 8.33Z" fill="#000000" fill-opacity="1.000000" fill-rule="evenodd"/>
	                    </g>
                    </svg>